<?xml version="1.0" standalone="no"?>
<!DOCTYPE svg PUBLIC "-//W3C//DTD SVG 20010904//EN"
 "http://www.w3.org/TR/2001/REC-SVG-20010904/DTD/svg10.dtd">
<svg version="1.0" xmlns="http://www.w3.org/2000/svg"
 width="460.000000pt" height="460.000000pt" viewBox="0 0 460.000000 460.000000"
 preserveAspectRatio="xMidYMid meet">
<metadata>
Created by potrace 1.11, written by Peter Selinger 2001-2013
</metadata>
<g transform="translate(0.000000,460.000000) scale(0.100000,-0.100000)"
fill="#000000" stroke="none">
<path d="M199 4280 c-8 -6 -7 -9 2 -13 11 -3 9 -9 -6 -21 l-20 -15 20 -2 c11
0 896 -2 1967 -2 1938 -2 1947 -2 1958 18 9 18 9 17 4 -5 -6 -22 -5 -23 10
-11 9 7 16 10 16 5 0 -10 96 -11 106 -1 4 3 14 2 24 -3 12 -6 17 -5 17 6 0 15
-7 16 -97 17 -30 0 -58 5 -61 10 -4 6 -12 6 -20 1 -8 -5 -55 -9 -104 -10 -50
0 -96 -3 -102 -7 -5 -3 -13 -4 -17 0 -11 11 -86 11 -86 -1 0 -6 -4 -5 -9 3 -5
8 -11 9 -15 3 -4 -6 -17 -8 -34 -3 -15 4 -48 6 -74 5 -27 -2 -48 1 -48 6 0 5
36 8 80 6 55 -2 77 0 73 8 -4 6 1 5 10 -3 15 -11 17 -11 17 2 0 15 -23 18 -36
4 -4 -4 -13 -2 -21 4 -10 9 -13 8 -13 -2 0 -9 -3 -10 -8 -4 -9 13 -42 16 -42
4 0 -5 -5 -9 -11 -9 -5 0 -8 3 -5 8 2 4 -13 7 -35 7 -21 0 -39 -4 -39 -9 0 -5
-5 -4 -12 1 -16 12 -107 11 -111 -1 -1 -5 31 -9 71 -10 39 0 72 -4 72 -8 0 -3
-34 -5 -76 -4 -41 1 -77 -1 -80 -5 -2 -4 -17 -4 -32 0 -15 3 -48 6 -74 6 -27
-1 -48 2 -48 7 0 4 29 6 65 5 41 -2 65 1 65 8 0 6 -18 10 -39 10 -22 0 -37 -3
-35 -7 6 -10 -10 -10 -20 -1 -12 12 -36 12 -36 0 0 -7 -5 -5 -10 3 -8 12 -10
12 -10 1 0 -11 -3 -11 -15 -1 -12 10 -15 10 -15 -1 0 -9 -3 -10 -8 -4 -8 12
-122 15 -122 3 0 -4 -5 -8 -11 -8 -5 0 -8 4 -5 8 2 4 -6 8 -19 8 -14 0 -27 -6
-29 -13 -7 -17 6 -17 23 0 9 8 12 8 7 0 -5 -8 9 -10 50 -7 30 2 60 7 66 10 6
4 9 3 5 -2 -3 -5 15 -9 39 -9 24 1 44 -2 44 -6 0 -4 -30 -6 -67 -5 -38 1 -83
-1 -101 -5 -17 -4 -34 -4 -36 0 -5 7 -424 6 -432 -1 -3 -4 -18 -3 -32 1 -15 4
-48 6 -74 6 -27 -1 -48 2 -48 7 0 4 29 6 65 5 38 -2 66 1 69 7 2 6 5 3 5 -8 1
-13 4 -16 14 -9 6 6 51 10 100 9 56 -2 87 1 87 8 0 7 -30 11 -80 11 -44 0 -80
-4 -80 -8 0 -5 -6 -5 -12 0 -19 11 -102 10 -110 -2 -5 -6 -11 -5 -17 3 -9 15
-20 15 -38 0 -9 -8 -13 -7 -13 3 0 11 -2 11 -10 -1 -5 -8 -10 -10 -10 -5 0 14
-60 13 -60 0 0 -5 -5 -3 -11 5 -9 13 -10 13 -7 0 3 -10 19 -14 51 -14 26 -1
47 -4 47 -8 0 -3 -25 -6 -55 -5 -35 1 -55 6 -55 14 0 6 -5 15 -11 19 -7 4 -9
0 -5 -14 6 -19 2 -20 -239 -18 -157 1 -245 -3 -245 -9 0 -5 -4 -4 -9 4 -6 9
-11 10 -15 2 -4 -6 -12 -8 -18 -5 -17 11 -278 10 -278 -1 0 -5 -4 -4 -9 4 -5
8 -11 9 -15 3 -4 -6 -17 -8 -34 -3 -15 4 -48 6 -74 5 -27 -2 -48 1 -48 6 0 5
29 8 65 7 41 -2 65 1 65 8 0 6 -18 10 -39 10 -22 0 -37 -3 -35 -7 6 -10 -10
-10 -20 -1 -12 12 -36 12 -36 0 0 -7 -5 -5 -10 3 -8 12 -10 12 -10 1 0 -11 -3
-11 -15 -1 -12 10 -15 10 -15 -1 0 -9 -3 -10 -8 -4 -8 12 -122 15 -122 3 0 -4
-5 -8 -11 -8 -5 0 -8 4 -5 8 2 4 -6 8 -20 8 -21 0 -35 -14 -16 -17 27 -5 82
-4 109 2 18 4 31 4 29 0 -2 -3 16 -6 40 -6 24 1 44 -2 44 -5 0 -4 -97 -6 -216
-7 -194 0 -215 2 -211 16 3 13 -3 16 -27 15 -46 -3 -48 -3 -41 -14 3 -6 17 -8
31 -6 13 3 24 1 24 -4 0 -5 -38 -8 -85 -6 -53 1 -85 -2 -85 -9 0 -5 -4 -4 -9
4 -5 8 -11 9 -15 3 -4 -6 -18 -8 -34 -3 -15 3 -48 6 -74 6 -27 -1 -48 2 -48 7
0 4 29 6 65 5 38 -2 66 1 69 7 2 6 5 3 5 -7 1 -10 6 -15 11 -12 6 4 7 12 3 18
-4 7 0 6 10 -2 12 -9 17 -10 17 -2 0 7 5 9 12 5 19 -12 88 -12 88 0 0 14 -212
15 -222 1 -6 -7 -10 -7 -15 0 -9 12 -23 13 -40 2 -8 -5 -13 -3 -13 5 0 9 -3 9
-10 -2 -5 -8 -10 -10 -10 -5 0 14 -60 13 -60 0 0 -5 -5 -3 -11 5 -9 13 -10 13
-7 0 3 -10 19 -14 51 -14 26 -1 47 -4 47 -8 0 -14 -105 -4 -111 11 -7 18 -39
24 -39 8 0 -8 -3 -8 -8 -2 -10 14 -172 14 -172 0 0 -13 192 -14 202 0 5 6 8 3
8 -7 0 -15 -12 -17 -107 -15 -60 1 -113 -2 -119 -5 -6 -4 -11 -1 -11 7 0 8 4
15 9 15 4 0 8 4 8 8 0 11 -25 11 -41 2z"/>
<path d="M967 4277 c-4 -11 11 -14 88 -13 59 1 91 5 88 11 -4 12 -93 15 -93 3
0 -4 -5 -8 -11 -8 -5 0 -8 4 -5 8 2 4 -6 8 -20 8 -13 0 -24 -5 -24 -10 0 -6
-4 -5 -9 2 -7 11 -9 11 -14 -1z"/>
<path d="M1530 4269 c0 -11 4 -18 10 -14 5 3 7 12 3 20 -7 21 -13 19 -13 -6z"/>
<path d="M1555 4281 c-3 -5 -1 -12 5 -16 5 -3 10 1 10 9 0 18 -6 21 -15 7z"/>
<path d="M1584 4278 c2 -10 35 -13 129 -13 118 0 143 4 117 20 -5 3 -10 0 -10
-7 0 -8 -3 -9 -8 -3 -10 14 -42 15 -42 1 0 -6 -5 -4 -10 4 -9 13 -10 13 -10 0
0 -13 -1 -13 -10 0 -8 12 -10 12 -10 1 0 -11 -3 -11 -15 -1 -12 10 -15 10 -15
-1 0 -9 -3 -10 -8 -4 -4 6 -14 10 -22 10 -8 0 -18 -4 -22 -10 -5 -6 -8 -4 -8
5 0 13 -1 13 -10 0 -8 -12 -10 -12 -10 -1 0 10 -3 11 -14 2 -10 -8 -16 -9 -19
-1 -3 6 -4 5 -3 -2z"/>
<path d="M1855 4282 c-10 -10 -5 -33 5 -27 6 4 7 12 3 18 -4 7 0 6 10 -2 15
-11 17 -11 17 1 0 14 -24 20 -35 10z"/>
<path d="M1905 4280 c-8 -13 -19 -12 207 -14 126 -1 198 3 198 9 0 6 -30 10
-70 10 -39 0 -70 -3 -70 -7 0 -5 -5 -8 -11 -8 -5 0 -8 4 -5 8 2 4 -6 8 -20 8
-13 0 -24 -5 -24 -10 0 -6 -5 -4 -10 4 -9 13 -10 13 -10 0 0 -9 -3 -11 -8 -5
-9 12 -72 15 -72 3 0 -4 -5 -8 -11 -8 -5 0 -8 4 -5 8 2 4 -6 8 -20 8 -13 0
-24 -5 -24 -10 0 -6 -5 -4 -10 4 -6 10 -10 11 -10 3 0 -7 -5 -13 -11 -13 -5 0
-7 5 -4 10 3 6 4 10 1 10 -3 0 -8 -4 -11 -10z"/>
<path d="M2326 4282 c-8 -14 -8 -14 21 -17 15 -2 20 2 16 12 -4 11 -8 12 -13
3 -6 -9 -9 -9 -12 1 -3 10 -6 10 -12 1z"/>
<path d="M2865 4281 c-9 -16 6 -18 99 -16 68 1 91 5 94 16 3 11 1 11 -7 -1 -6
-8 -11 -10 -11 -5 0 6 -16 11 -35 11 -19 0 -35 -4 -35 -8 0 -4 -5 -8 -11 -8
-5 0 -8 4 -5 8 2 4 -6 8 -20 8 -13 0 -24 -5 -24 -10 0 -6 -5 -4 -10 4 -6 10
-10 11 -10 3 0 -7 -5 -13 -11 -13 -5 0 -7 5 -4 10 3 6 4 10 1 10 -3 0 -7 -4
-11 -9z"/>
<path d="M3450 4269 c0 -11 4 -18 10 -14 5 3 7 12 3 20 -7 21 -13 19 -13 -6z"/>
<path d="M3825 4281 c-7 -13 5 -19 35 -17 14 1 31 -3 39 -8 11 -8 13 -8 7 2
-4 6 -2 12 3 12 6 0 11 4 11 8 0 4 -11 8 -25 8 -14 0 -25 -5 -25 -10 0 -6 -5
-4 -10 4 -6 10 -10 11 -10 3 0 -7 -5 -13 -11 -13 -5 0 -7 5 -4 10 3 6 4 10 1
10 -3 0 -7 -4 -11 -9z"/>
<path d="M3930 4275 c0 -6 29 -9 72 -8 93 2 90 1 82 14 -4 8 -9 7 -15 -2 -5
-8 -9 -9 -9 -4 0 6 -28 10 -65 10 -37 0 -65 -4 -65 -10z"/>
<path d="M4150 4280 c0 -5 5 -10 11 -10 5 0 7 5 4 10 -3 6 -8 10 -11 10 -2 0
-4 -4 -4 -10z"/>
<path d="M4239 4280 c-6 -4 1 -7 15 -7 14 0 26 3 26 7 0 3 -7 7 -15 7 -8 0
-19 -4 -26 -7z"/>
<path d="M247 4170 c-8 -10 -21 -20 -28 -22 -8 -3 -10 -9 -6 -14 9 -10 4072
-13 4121 -3 21 4 30 12 31 27 2 27 -11 29 -18 3 -3 -14 -11 -18 -26 -14 -11 3
-18 9 -15 14 3 5 10 7 15 4 5 -4 9 -1 9 4 0 18 -18 12 -34 -11 -11 -15 -16
-18 -16 -8 0 13 -2 13 -10 0 -6 -9 -10 -10 -10 -3 0 7 -10 10 -23 7 -15 -2
-24 1 -24 10 0 10 7 12 29 6 21 -6 28 -5 28 5 0 10 -316 13 -1805 13 -1353 0
-1803 -3 -1798 -12 5 -7 2 -7 -8 1 -10 8 -72 12 -206 11 -169 0 -192 -2 -206
-18z m40 -6 c-3 -3 -12 -4 -19 -1 -8 3 -5 6 6 6 11 1 17 -2 13 -5z"/>
<path d="M369 4106 c-2 -2 -28 -6 -58 -8 -30 -2 -57 -10 -59 -16 -2 -7 5 -12
15 -12 17 -1 17 -1 1 -11 -10 -5 -18 -14 -18 -19 0 -13 4000 -13 4020 0 8 5
13 10 10 11 -3 0 -14 2 -25 5 -11 2 -30 5 -42 6 -12 1 -20 5 -18 9 3 3 15 4
29 2 13 -3 32 0 43 6 14 8 15 11 3 12 -8 1 -33 4 -55 7 -49 6 -3840 14 -3846
8z"/>
<path d="M4294 4088 c-3 -4 -4 -8 -2 -9 25 -6 35 -5 35 5 0 14 -25 17 -33 4z"/>
<path d="M4345 4080 c-3 -6 1 -7 9 -4 18 7 21 14 7 14 -6 0 -13 -4 -16 -10z"/>
<path d="M4293 4045 c0 -14 62 -14 74 0 4 4 2 5 -4 1 -7 -4 -13 -3 -13 2 0 4
-13 8 -28 8 -16 0 -29 -5 -29 -11z"/>
<path d="M3217 3714 c-1 -1 -36 -3 -77 -5 -77 -3 -159 -22 -170 -39 -4 -6 -31
-1 -68 12 l-62 21 -23 -21 c-13 -12 -31 -45 -41 -74 -15 -41 -178 -339 -249
-453 -84 -134 -129 -202 -177 -265 -32 -41 -81 -115 -108 -165 -75 -133 -125
-210 -129 -198 -2 6 8 80 22 165 14 84 28 167 31 183 2 17 7 41 9 55 5 25 9
56 23 165 4 33 7 152 7 265 0 184 -2 209 -20 244 -36 72 -49 76 -235 78 -91 0
-182 -2 -203 -6 -22 -4 -52 -3 -72 4 -42 14 -68 2 -95 -43 -20 -33 -28 -31
-10 2 8 16 2 21 -46 40 -88 33 -107 21 -149 -98 -31 -88 -297 -534 -400 -671
-64 -85 -135 -198 -189 -300 -10 -19 -29 -48 -43 -65 l-25 -30 6 45 c3 25 8
56 10 70 3 14 15 83 26 154 12 71 23 137 25 146 2 9 6 39 9 66 4 27 9 65 12
84 11 71 14 387 4 455 -20 132 -39 144 -241 149 -85 2 -173 -1 -197 -7 -31 -7
-55 -6 -89 4 l-47 13 -30 -36 -30 -35 2 -154 c1 -85 5 -244 8 -354 8 -226 8
-390 1 -1320 -3 -363 -8 -694 -12 -735 -8 -94 3 -126 51 -146 27 -11 53 -13
102 -8 37 4 85 7 107 6 156 -6 218 -4 225 7 4 7 6 32 4 54 -1 23 6 78 16 122
13 56 20 137 24 270 3 105 7 199 10 210 10 48 18 215 21 406 1 113 6 225 10
250 3 24 9 56 11 72 6 38 43 135 55 142 5 4 10 -2 10 -12 2 -26 6 -53 13 -98
4 -22 9 -58 12 -80 9 -83 57 -316 99 -490 24 -99 47 -196 50 -215 3 -19 10
-39 15 -45 4 -5 31 -98 59 -205 28 -107 55 -211 60 -230 5 -19 15 -54 21 -78
l11 -44 97 6 c53 2 116 5 140 5 25 1 42 6 42 13 0 6 7 20 16 30 16 17 13 29
-40 192 -31 96 -60 192 -63 213 -3 21 -19 67 -34 102 -42 93 -108 358 -134
536 -18 123 -25 177 -30 245 -4 41 -8 91 -10 110 -3 19 -7 82 -10 140 -10 156
-11 171 -25 216 -12 40 -12 41 37 106 86 112 162 244 289 497 68 135 125 238
128 230 7 -20 18 -578 18 -899 0 -514 -11 -1545 -17 -1615 -8 -99 0 -132 38
-156 27 -16 43 -18 102 -13 39 4 95 6 125 5 160 -5 213 -2 220 9 4 7 6 31 4
53 -3 22 5 77 15 121 15 59 21 132 25 266 3 102 8 201 10 220 14 110 18 177
21 396 5 255 16 343 55 430 11 26 22 45 24 43 2 -2 6 -22 9 -44 26 -186 38
-253 69 -400 16 -77 31 -151 34 -165 3 -14 18 -74 34 -135 15 -60 31 -128 34
-149 4 -22 10 -44 15 -50 5 -6 32 -101 60 -211 29 -110 56 -213 61 -230 5 -16
14 -50 20 -73 l11 -44 131 6 c127 6 158 14 158 41 0 8 5 15 12 17 8 3 -6 59
-46 183 -32 99 -61 195 -63 214 -3 20 -19 65 -35 101 -61 136 -140 515 -163
785 -3 39 -8 84 -10 100 -2 17 -7 80 -10 140 -11 183 -12 191 -24 213 -18 34
-13 49 38 115 77 98 184 284 300 522 60 121 111 228 115 239 6 17 8 17 26 -6
48 -62 53 -95 46 -306 -3 -108 -8 -208 -10 -222 -3 -14 -7 -74 -11 -135 -4
-60 -8 -126 -10 -145 -2 -19 -7 -75 -11 -125 -3 -49 -8 -103 -9 -120 -20 -212
-27 -717 -12 -870 4 -44 16 -123 26 -175 25 -127 17 -398 -16 -529 -25 -99
-51 -94 427 -88 223 3 419 10 436 15 88 27 124 57 204 167 127 176 276 452
324 600 58 181 71 267 71 485 0 314 -20 420 -154 826 -84 253 -146 353 -283
456 -165 124 -358 214 -526 243 -78 13 -247 26 -255 19z m482 -324 c87 -40
157 -120 222 -256 66 -137 133 -367 155 -529 3 -27 8 -53 10 -56 5 -9 18 -240
18 -344 0 -156 -11 -291 -39 -490 -9 -64 -57 -231 -85 -298 -81 -188 -153
-256 -289 -273 l-51 -6 -1 38 c0 22 -2 48 -4 59 -5 27 -13 122 -21 240 -3 55
-7 125 -9 155 -17 261 -20 350 -19 600 1 263 12 831 19 995 1 39 3 96 4 128 1
52 3 57 24 57 12 0 42 -9 66 -20z"/>
<path d="M227 526 c-4 -9 -2 -16 3 -16 6 0 10 6 10 13 0 9 2 9 8 0 5 -8 13 -9
22 -3 9 6 10 10 3 10 -6 0 -18 3 -26 6 -8 3 -17 -2 -20 -10z"/>
<path d="M302 533 c-19 -7 -4 -23 23 -23 13 0 27 -5 31 -12 5 -8 2 -9 -9 -5
-22 8 -49 -2 -41 -15 4 -6 10 -5 15 3 5 8 9 9 9 4 0 -6 26 -12 58 -15 68 -6
3826 -7 3895 -1 26 2 50 8 53 13 3 4 -3 5 -12 1 -13 -5 -15 -3 -9 7 6 10 4 12
-9 7 -10 -4 -15 -3 -11 3 3 6 13 10 21 10 9 0 14 6 11 12 -6 19 -3983 24
-4006 5 -12 -9 -13 -9 -7 1 8 13 7 13 -12 5z m83 -33 c3 -5 1 -10 -4 -10 -6 0
-11 5 -11 10 0 6 2 10 4 10 3 0 8 -4 11 -10z"/>
<path d="M245 488 c-18 -8 -18 -8 2 -4 12 2 24 -1 26 -7 2 -6 6 -4 9 4 7 17
-8 20 -37 7z"/>
<path d="M220 440 c-11 -7 -11 -10 -2 -10 7 0 11 -3 9 -7 -3 -5 5 -8 18 -8 13
0 22 2 20 5 -2 3 5 6 16 6 10 0 19 -3 19 -6 0 -3 20 -5 45 -4 24 1 42 -2 39
-7 -2 -4 -11 -6 -19 -2 -9 3 -15 -1 -15 -9 0 -13 259 -15 1990 -15 1654 0
1990 2 1986 13 -3 9 4 16 20 20 20 5 22 9 13 20 -10 12 -308 14 -2060 14
-1279 -1 -2049 -5 -2049 -11 0 -5 -5 -9 -11 -9 -5 0 -7 5 -4 10 8 12 4 12 -15
0z m240 -36 c0 -8 -19 -13 -24 -6 -3 5 1 9 9 9 8 0 15 -2 15 -3z"/>
<path d="M275 400 c-3 -5 1 -10 10 -10 9 0 13 5 10 10 -3 6 -8 10 -10 10 -2 0
-7 -4 -10 -10z"/>
<path d="M330 399 c0 -5 -4 -7 -10 -4 -5 3 -10 1 -10 -4 0 -6 7 -11 15 -11 8
0 15 7 15 15 0 8 -2 15 -5 15 -3 0 -5 -5 -5 -11z"/>
<path d="M235 390 c-3 -6 1 -7 9 -4 18 7 21 14 7 14 -6 0 -13 -4 -16 -10z"/>
<path d="M275 340 c-3 -5 -4 -14 0 -19 5 -9 14 -9 55 1 9 2 15 -4 14 -13 -1
-9 4 -16 11 -16 7 0 11 9 9 21 -3 12 -2 15 2 8 3 -6 11 -9 17 -5 7 4 8 0 4
-13 -6 -15 -3 -13 11 5 12 14 22 20 26 13 3 -6 0 -13 -6 -15 -9 -4 -10 -6 -1
-6 6 -1 15 4 18 9 3 6 14 10 23 10 15 0 15 -2 2 -10 -9 -6 -10 -10 -3 -10 6 0
14 4 17 9 3 5 25 8 48 6 24 -1 47 0 53 4 14 8 45 9 45 1 0 -4 34 -6 75 -4 41
1 75 -1 75 -6 0 -4 -22 -7 -50 -6 -30 1 -50 -2 -50 -8 0 -6 22 -11 50 -11 28
0 50 3 50 8 0 4 5 5 10 2 21 -13 80 -13 80 0 0 8 -12 11 -34 8 -20 -2 -38 2
-42 8 -4 7 -3 9 4 5 6 -3 13 -2 17 4 4 6 13 7 23 1 9 -4 26 -6 37 -4 22 5 21
5 80 0 22 -2 48 0 58 5 11 6 17 5 17 -3 0 -9 3 -9 14 0 8 7 17 8 20 3 6 -10
97 -9 114 2 7 4 12 3 12 -2 0 -13 33 -10 42 3 5 6 8 6 8 -2 0 -13 18 -12 39 1
10 6 12 5 7 -3 -5 -8 0 -10 18 -7 14 3 30 7 36 11 5 3 10 1 10 -6 0 -9 3 -9
14 0 8 7 17 8 20 3 6 -10 97 -9 114 2 7 4 12 3 12 -2 0 -13 33 -10 42 3 5 6 8
6 8 -2 0 -11 17 -12 35 -2 6 4 19 4 30 2 11 -3 30 -4 43 -4 37 1 44 1 127 -2
44 -2 88 0 98 5 9 5 17 5 17 0 0 -5 34 -8 75 -6 41 1 75 -1 75 -6 0 -4 -22 -7
-50 -6 -30 1 -50 -2 -50 -8 0 -6 22 -11 50 -11 28 0 50 3 50 8 0 4 5 5 10 2
21 -13 80 -13 80 0 0 8 -12 11 -34 8 -20 -2 -38 2 -42 8 -4 7 -3 9 4 5 6 -3
13 -2 17 4 4 6 13 7 23 1 9 -4 26 -6 37 -4 22 5 21 5 80 0 22 -2 48 0 58 5 11
6 17 5 17 -3 0 -9 3 -9 14 0 8 7 17 8 20 3 6 -10 97 -9 114 2 7 4 12 3 12 -1
0 -11 71 -10 89 1 10 6 12 5 7 -3 -5 -8 0 -10 18 -7 14 3 30 7 36 11 5 3 10 1
10 -6 0 -9 3 -9 14 0 8 7 17 8 20 3 6 -10 97 -9 114 2 7 4 12 3 12 -1 0 -10
70 -11 85 -2 6 4 19 4 30 2 11 -3 30 -4 43 -4 37 1 44 1 127 -2 44 -2 88 0 98
5 9 5 17 5 17 0 0 -5 34 -8 75 -6 41 1 75 -1 75 -6 0 -4 -22 -7 -50 -6 -30 1
-50 -2 -50 -8 0 -6 22 -11 50 -11 28 0 50 3 50 8 0 4 5 5 10 2 21 -13 80 -13
80 0 0 8 -12 11 -34 8 -20 -2 -38 2 -42 8 -4 7 -3 9 4 5 6 -3 13 -2 17 4 4 6
13 7 23 1 9 -4 26 -6 37 -4 22 5 21 5 80 0 22 -2 48 0 58 5 11 6 17 5 17 -3 0
-9 3 -9 14 0 8 7 17 8 20 3 6 -10 97 -9 114 2 7 4 12 3 12 -1 0 -11 71 -10 89
1 10 6 12 5 7 -3 -5 -8 0 -10 18 -7 14 3 30 7 36 11 5 3 10 1 10 -6 0 -9 3 -9
14 0 8 7 17 8 20 3 6 -10 97 -9 114 2 7 4 12 3 12 -1 0 -10 70 -11 85 -2 6 4
19 4 30 2 11 -3 30 -4 43 -4 12 0 28 1 35 1 6 0 29 -1 49 -3 21 -2 43 0 50 4
6 4 20 3 29 -2 14 -7 16 -5 12 9 -3 13 -14 18 -41 17 -20 0 -43 -5 -51 -9 -8
-5 -12 -5 -9 0 4 5 -14 9 -38 10 -26 0 -41 -3 -37 -9 4 -6 1 -7 -8 -1 -20 12
-189 12 -181 -1 3 -5 -1 -4 -10 3 -11 9 -18 10 -23 2 -3 -6 -12 -7 -18 -3 -17
11 -116 10 -110 -1 4 -5 0 -6 -8 0 -20 12 -159 12 -151 -1 3 -5 -1 -4 -10 3
-11 9 -18 10 -23 2 -3 -6 -12 -7 -18 -3 -19 12 -116 10 -109 -2 3 -5 -2 -4
-11 4 -14 11 -20 11 -34 0 -9 -8 -14 -9 -11 -4 4 6 -11 10 -38 11 -24 0 -41
-3 -37 -9 3 -5 -2 -5 -13 0 -21 11 -64 11 -81 0 -5 -4 -13 -3 -17 0 -11 11
-46 10 -39 0 4 -6 1 -7 -8 -1 -19 12 -59 12 -52 0 4 -5 1 -6 -8 0 -19 12 -59
12 -52 0 4 -5 1 -6 -8 -1 -19 12 -49 14 -55 3 -3 -5 -11 -5 -17 0 -15 10 -27
10 -46 -2 -9 -6 -12 -5 -8 0 7 12 -53 12 -72 0 -8 -5 -12 -5 -8 0 3 5 -37 9
-93 9 -63 0 -96 -4 -92 -10 3 -5 -1 -4 -10 3 -11 9 -18 10 -23 2 -3 -6 -12 -7
-18 -3 -17 11 -116 10 -110 -1 4 -5 0 -6 -8 0 -20 12 -159 12 -151 -1 3 -5 -1
-4 -10 3 -11 9 -18 10 -23 2 -3 -6 -12 -7 -18 -3 -17 11 -116 10 -110 -1 4 -5
0 -6 -8 0 -22 13 -51 16 -43 3 4 -8 1 -8 -13 -1 -21 12 -41 11 -62 -2 -9 -6
-12 -5 -8 0 6 11 -73 12 -90 1 -5 -3 -13 -3 -17 0 -11 11 -46 10 -39 0 4 -6 1
-7 -8 -1 -19 12 -59 12 -52 0 4 -5 1 -6 -8 0 -19 12 -59 12 -52 0 4 -5 1 -6
-8 -1 -19 12 -49 14 -55 3 -3 -4 -11 -5 -17 -1 -19 11 -58 13 -51 1 4 -7 0 -7
-13 0 -21 12 -41 11 -62 -2 -8 -5 -12 -5 -8 0 3 5 -37 9 -93 9 -63 0 -96 -4
-92 -10 3 -5 -1 -4 -10 3 -11 9 -18 10 -23 2 -3 -6 -12 -7 -18 -3 -17 11 -116
10 -110 -1 4 -5 0 -6 -8 0 -20 12 -159 12 -151 -1 3 -5 -1 -4 -10 3 -11 9 -18
10 -23 2 -3 -6 -12 -7 -18 -3 -19 12 -116 10 -109 -2 3 -5 -2 -4 -11 4 -14 11
-20 11 -34 0 -9 -8 -14 -9 -11 -4 8 13 -51 14 -71 1 -8 -6 -12 -5 -8 0 3 5
-10 10 -28 10 -22 0 -32 -4 -28 -10 4 -6 0 -5 -9 2 -11 9 -18 10 -23 2 -3 -6
-12 -7 -18 -3 -18 11 -47 11 -40 0 4 -6 1 -7 -8 -1 -20 13 -59 12 -51 -1 4 -6
1 -6 -9 1 -15 11 -104 12 -115 1 -4 -4 -14 -1 -22 6 -17 14 -22 13 -33 -5 -6
-9 -11 -10 -16 -2 -9 12 -116 12 -152 0 -16 -6 -21 -5 -17 3 4 6 5 11 2 11 -3
0 -8 -4 -11 -10z"/>
<path d="M576 311 c-3 -5 -24 -8 -46 -7 -22 1 -40 -1 -40 -6 0 -9 4 -10 65
-12 25 0 45 4 45 9 0 7 3 7 8 0 9 -12 52 -15 52 -3 0 9 -11 11 -53 10 -15 0
-25 4 -22 9 4 5 4 9 1 9 -3 0 -7 -4 -10 -9z"/>
<path d="M894 313 c4 -8 1 -13 -8 -13 -9 0 -16 -4 -16 -8 0 -5 16 -8 35 -8 22
1 35 6 35 14 0 7 -5 10 -10 7 -6 -4 -18 -1 -27 7 -12 9 -15 9 -9 1z"/>
<path d="M1036 312 c-4 -4 -20 -8 -34 -8 -47 -3 -52 -4 -52 -11 0 -5 11 -8 25
-8 14 0 25 5 25 10 0 7 3 7 8 0 9 -13 145 -13 154 0 5 7 8 7 8 0 0 -5 23 -10
50 -10 28 0 50 5 50 10 0 7 -38 10 -102 9 -57 0 -108 3 -114 7 -6 5 -14 5 -18
1z"/>
<path d="M1355 311 c-3 -6 -19 -9 -36 -7 -34 4 -49 -9 -19 -17 11 -3 20 0 20
6 0 8 3 8 8 2 9 -13 145 -13 154 0 5 7 8 7 8 0 0 -5 22 -10 49 -10 39 0 51 4
55 17 3 12 0 16 -7 11 -17 -11 -200 -11 -214 -1 -7 5 -14 5 -18 -1z"/>
<path d="M1614 313 c4 -8 2 -13 -5 -13 -23 0 3 -15 27 -15 14 -1 24 5 24 13 0
7 -5 10 -10 7 -6 -4 -18 -1 -27 7 -12 9 -15 9 -9 1z"/>
<path d="M1694 313 c4 -8 1 -13 -8 -13 -9 0 -16 -4 -16 -8 0 -5 16 -8 35 -8
22 1 35 6 35 14 0 7 -5 10 -10 7 -6 -4 -18 -1 -27 7 -12 9 -15 9 -9 1z"/>
<path d="M2174 313 c4 -8 1 -13 -8 -13 -9 0 -16 -4 -16 -8 0 -5 16 -8 35 -8
22 1 35 6 35 14 0 7 -5 10 -10 7 -6 -4 -18 -1 -27 7 -12 9 -15 9 -9 1z"/>
<path d="M2316 312 c-4 -4 -20 -8 -34 -8 -47 -3 -52 -4 -52 -11 0 -5 11 -8 25
-8 14 0 25 5 25 10 0 7 3 7 8 0 9 -13 145 -13 154 0 5 7 8 7 8 0 0 -5 23 -10
50 -10 28 0 50 5 50 10 0 7 -38 10 -102 9 -57 0 -108 3 -114 7 -6 5 -14 5 -18
1z"/>
<path d="M2635 311 c-3 -6 -19 -9 -36 -7 -34 4 -49 -9 -19 -17 11 -3 20 0 20
6 0 8 3 8 8 2 9 -13 145 -13 154 0 5 7 8 7 8 0 0 -5 22 -10 49 -10 39 0 51 4
55 17 3 12 0 16 -7 11 -17 -11 -200 -11 -214 -1 -7 5 -14 5 -18 -1z"/>
<path d="M2894 313 c4 -8 2 -13 -5 -13 -23 0 3 -15 27 -15 14 -1 24 5 24 13 0
7 -5 10 -10 7 -6 -4 -18 -1 -27 7 -12 9 -15 9 -9 1z"/>
<path d="M2974 313 c4 -8 1 -13 -8 -13 -9 0 -16 -4 -16 -8 0 -5 16 -8 35 -8
22 1 35 6 35 14 0 7 -5 10 -10 7 -6 -4 -18 -1 -27 7 -12 9 -15 9 -9 1z"/>
<path d="M3454 313 c4 -8 1 -13 -8 -13 -9 0 -16 -4 -16 -8 0 -4 29 -8 65 -8
36 1 65 5 65 11 0 7 3 7 8 0 4 -6 39 -10 77 -10 39 0 73 4 77 10 5 7 8 7 8 0
0 -5 23 -10 50 -10 28 0 50 5 50 10 0 7 -38 10 -105 10 -58 -1 -108 2 -111 7
-3 4 -11 5 -17 1 -19 -12 -120 -12 -136 1 -11 8 -13 8 -7 -1z"/>
<path d="M3915 311 c-3 -6 -19 -9 -36 -7 -34 4 -49 -9 -19 -17 11 -3 20 0 20
6 0 8 3 8 8 2 9 -13 145 -13 154 0 5 7 8 7 8 0 0 -5 22 -10 49 -10 39 0 51 4
55 17 3 12 0 16 -7 11 -17 -11 -200 -11 -214 -1 -7 5 -14 5 -18 -1z"/>
<path d="M4174 313 c4 -8 2 -13 -5 -13 -23 0 3 -15 27 -15 14 -1 24 5 24 13 0
7 -5 10 -10 7 -6 -4 -18 -1 -27 7 -12 9 -15 9 -9 1z"/>
<path d="M4254 313 c4 -8 1 -13 -8 -13 -9 0 -16 -4 -16 -8 0 -5 16 -8 35 -8
22 1 35 6 35 14 0 7 -5 10 -10 7 -6 -4 -18 -1 -27 7 -12 9 -15 9 -9 1z"/>
<path d="M4355 310 c-3 -6 -14 -9 -22 -8 -9 2 -18 -2 -20 -9 -3 -8 7 -11 30
-10 21 1 34 7 33 14 -3 19 -13 26 -21 13z"/>
<path d="M306 301 c-19 -7 -19 -8 0 -13 13 -3 21 0 21 8 0 8 -1 14 -1 13 -1 0
-10 -4 -20 -8z"/>
<path d="M1754 301 c-13 -13 3 -18 61 -17 36 1 65 5 65 11 0 7 3 7 8 0 9 -12
52 -15 52 -3 0 4 -3 8 -7 9 -26 3 -175 3 -179 0z"/>
<path d="M3034 301 c-13 -13 3 -18 61 -17 36 1 65 5 65 11 0 7 3 7 8 0 9 -12
52 -15 52 -3 0 4 -3 8 -7 9 -26 3 -175 3 -179 0z"/>
</g>
</svg>
